<svg width="130" height="33" viewBox="0 0 130 33" fill="none" xmlns="http://www.w3.org/2000/svg">
<path d="M53.247 18.2675C53.0311 18.8594 52.7368 19.3598 52.364 19.7587C51.9912 20.161 51.5497 20.4814 51.0461 20.7234C50.5393 20.9654 49.9997 21.1518 49.4209 21.2761C48.8421 21.4004 48.2436 21.4821 47.619 21.5148C46.9944 21.5475 46.3764 21.5573 45.7616 21.5475C45.1533 21.5606 44.5353 21.5475 43.9074 21.5148C43.2795 21.4821 42.6778 21.4036 42.1023 21.2761C41.5235 21.1486 40.9839 20.9654 40.4803 20.7234C39.9767 20.4814 39.5385 20.1577 39.1624 19.7587C38.7863 19.3565 38.492 18.8594 38.2795 18.2675C38.0669 17.6756 37.959 16.966 37.959 16.1452C37.959 15.3244 38.0636 14.5788 38.2795 13.9804C38.492 13.3819 38.7863 12.8783 39.1624 12.4761C39.5385 12.0706 39.9799 11.7534 40.4803 11.5179C40.9839 11.2857 41.5235 11.1092 42.1023 10.9882C42.6811 10.8672 43.2828 10.792 43.9074 10.7625C44.5353 10.7331 45.1533 10.7233 45.7616 10.7364C46.3764 10.7233 46.9944 10.7364 47.619 10.7625C48.2436 10.792 48.8421 10.8672 49.4209 10.9882C49.9997 11.1092 50.5393 11.2857 51.0461 11.5179C51.553 11.7501 51.9912 12.0706 52.364 12.4761C52.7368 12.8816 53.0311 13.3819 53.247 13.9804C53.4628 14.5788 53.5674 15.3015 53.5609 16.1452C53.5674 16.966 53.4628 17.6724 53.247 18.2675ZM49.9277 15.2198C49.8035 14.9549 49.64 14.7292 49.4307 14.5396C49.2247 14.3499 48.9794 14.1962 48.6982 14.0752C48.4169 13.9542 48.1161 13.8594 47.7923 13.7874C47.4686 13.7155 47.135 13.6664 46.7884 13.6403C46.4418 13.6141 46.0984 13.5978 45.7583 13.5912C45.4182 13.5912 45.0748 13.6076 44.7282 13.637C44.3816 13.6664 44.048 13.7187 43.7275 13.7907C43.4071 13.8626 43.1095 13.9575 42.825 14.0785C42.5437 14.1995 42.2985 14.3532 42.0892 14.5428C41.8799 14.7325 41.7131 14.9581 41.5921 15.223C41.4711 15.4879 41.409 15.7953 41.4025 16.1485C41.4123 16.5082 41.4809 16.8221 41.6052 17.087C41.7295 17.3552 41.893 17.5808 42.1023 17.7705C42.3083 17.9601 42.5536 18.1138 42.8315 18.2348C43.1095 18.3558 43.4103 18.4474 43.7341 18.5128C44.0545 18.5782 44.3881 18.624 44.7347 18.6534C45.0781 18.6796 45.4215 18.6927 45.7616 18.6927C45.755 18.6927 45.7518 18.6927 45.7518 18.6959C45.7518 18.6959 45.7518 18.6992 45.7616 18.6992C45.7714 18.6992 45.7779 18.6992 45.7747 18.6959C45.7747 18.6959 45.7681 18.6927 45.7616 18.6927C46.2717 18.6927 46.7851 18.66 47.3018 18.5978C47.8152 18.5357 48.2796 18.4147 48.6949 18.2348C49.1102 18.055 49.447 17.7999 49.7086 17.4664C49.9703 17.1328 50.1076 16.6946 50.1174 16.1485C50.1174 15.7953 50.0553 15.4879 49.931 15.223L49.9277 15.2198ZM59.1725 17.8392C59.4145 18.0288 59.6892 18.176 59.9998 18.2839C60.3105 18.3918 60.631 18.4736 60.9645 18.5259C61.2981 18.5782 61.6316 18.6142 61.9652 18.6305C62.2987 18.6469 62.6094 18.6534 62.8972 18.6534C63.028 18.6534 63.2177 18.6534 63.4662 18.6502C63.7147 18.6502 63.9959 18.6371 64.3164 18.6175C64.6369 18.6011 64.9803 18.5749 65.3498 18.5455C65.7193 18.5161 66.0987 18.4768 66.4878 18.4245C66.8769 18.3722 67.2596 18.3068 67.6422 18.2283C68.0248 18.1465 68.3812 18.0517 68.7148 17.9438V20.7496C67.7501 21.0439 66.7625 21.2499 65.7586 21.3644C64.7514 21.4821 63.7311 21.5312 62.6977 21.5115C62.5996 21.5115 62.508 21.5115 62.4165 21.5148C62.3282 21.5148 62.2333 21.5181 62.1352 21.5181C61.5499 21.5181 60.9612 21.4919 60.3759 21.4429C59.7905 21.3905 59.2281 21.2957 58.695 21.1551C58.162 21.0145 57.6617 20.8183 57.2006 20.5697C56.7362 20.3212 56.334 19.9975 55.9939 19.5952C55.6505 19.193 55.3856 18.709 55.1927 18.14C54.9998 17.571 54.9049 16.8973 54.9049 16.119V16.1092C54.9049 15.3244 55.003 14.6442 55.1992 14.0719C55.3954 13.4996 55.6636 13.0124 56.0037 12.6102C56.3471 12.2079 56.7493 11.8842 57.2202 11.6357C57.6878 11.3871 58.1914 11.1909 58.7277 11.0503C59.264 10.9097 59.8298 10.8148 60.4217 10.7658C61.0136 10.7167 61.6022 10.6938 62.1908 10.6938C62.7794 10.6938 63.3158 10.7037 63.8586 10.72C64.4014 10.7364 64.941 10.7723 65.4741 10.8279C66.0071 10.8802 66.5434 10.9587 67.0764 11.0601C67.6095 11.1615 68.1556 11.2956 68.7148 11.4656V14.2779C68.4205 14.1831 68.1098 14.0981 67.7828 14.0261C67.4558 13.9542 67.1222 13.8921 66.7887 13.843C66.4518 13.7907 66.1183 13.7482 65.7847 13.7122C65.4512 13.6762 65.1307 13.6501 64.8266 13.6305C64.1137 13.5814 63.404 13.5585 62.6977 13.5585C62.3576 13.5585 62.0175 13.5716 61.6709 13.5978C61.3275 13.6239 60.9939 13.673 60.6735 13.7416C60.353 13.8103 60.0554 13.9051 59.7774 14.0261C59.4995 14.1471 59.2542 14.2976 59.0449 14.484C58.8356 14.6704 58.6689 14.896 58.5446 15.1642C58.4203 15.4323 58.3549 15.743 58.3517 16.1027C58.3647 16.5049 58.4432 16.845 58.5904 17.1263C58.7375 17.4075 58.9305 17.6429 59.1725 17.8326V17.8392ZM78.5645 13.5945V21.3775H75.1243V13.5945H70.0555V10.7723H75.1243V10.7625H78.5645V10.7723H83.6332V13.5945H78.5645ZM96.1219 21.456L95.0526 19.8209H87.3972L86.3278 21.456H82.4135L89.0355 10.7625H93.4077L100.04 21.456H96.1252H96.1219ZM91.2232 13.7809L89.1794 16.9987H93.2573L91.2232 13.7809ZM112.237 21.4756L104.67 15.0922V21.4756H101.227V10.7789H104.644L112.211 17.1622V10.7789H115.655V21.4756H112.237ZM130.001 18.915V21.4658H117.424V10.7462L130.001 10.8247V13.2969H120.864V14.8698H129.572V17.3421H120.864V18.915H130.001Z" fill="black"/>
<path fill-rule="evenodd" clip-rule="evenodd" d="M16.2069 32.4923C7.25647 32.4923 0 25.2195 0 16.2462C0 7.27284 7.25647 0 16.2069 0C25.1573 0 32.4138 7.27284 32.4138 16.2462C32.4138 25.2195 25.1573 32.4923 16.2069 32.4923ZM16.2069 5.48079C10.2781 5.48079 5.4677 10.301 5.4677 16.2462C5.4677 22.1913 10.2748 27.0115 16.2069 27.0115C22.1389 27.0115 26.9461 22.1913 26.9461 16.2462C26.9461 10.301 22.1389 5.48079 16.2069 5.48079Z" fill="black"/>
<path fill-rule="evenodd" clip-rule="evenodd" d="M14.981 11.4453C14.981 11.4453 17.2341 12.6029 18.6631 12.2334C20.0922 11.8639 20.9163 10.9809 22.6102 10.9188C24.3892 10.8534 24.8274 11.7789 24.847 12.4983C24.8699 13.4139 24.6541 15.3924 21.5572 14.7351C18.4637 14.0778 14.981 11.4453 14.981 11.4453Z" fill="url(#paint0_linear_108_1802)"/>
<path fill-rule="evenodd" clip-rule="evenodd" d="M11.653 9.60391C14.1906 9.45348 15.5543 11.8571 18.7558 13.1553C23.8703 15.2286 24.6649 12.9722 24.7859 12.1317C25.3844 13.3646 25.7212 14.7511 25.7212 16.2162C25.7212 21.3896 21.5288 25.5819 16.3555 25.5819C11.1821 25.5819 6.98975 21.3896 6.98975 16.2162C6.98975 14.3947 7.51297 12.6942 8.41226 11.2586C8.88316 10.67 9.90999 9.71182 11.653 9.60718V9.60391Z" fill="url(#paint1_linear_108_1802)"/>
<defs>
<linearGradient id="paint0_linear_108_1802" x1="24.1537" y1="10.7226" x2="16.4591" y2="14.4735" gradientUnits="userSpaceOnUse">
<stop stop-color="#FFBA18"/>
<stop offset="1" stop-color="#FFDD1E"/>
</linearGradient>
<linearGradient id="paint1_linear_108_1802" x1="19.8643" y1="24.8985" x2="13.3077" y2="8.66538" gradientUnits="userSpaceOnUse">
<stop stop-color="#FF520A"/>
<stop offset="1" stop-color="#FFDD1E"/>
</linearGradient>
</defs>
</svg>
