<svg width="161" height="40" viewBox="0 0 161 40" fill="none" xmlns="http://www.w3.org/2000/svg">
<path d="M65.5499 22.4882C65.2842 23.2169 64.9219 23.8328 64.463 24.324C64.004 24.8191 63.4606 25.2137 62.8406 25.5116C62.2166 25.8095 61.5524 26.0389 60.8398 26.1919C60.1272 26.3449 59.3905 26.4455 58.6216 26.4858C57.8527 26.5261 57.0918 26.5381 56.335 26.5261C55.5862 26.5422 54.8253 26.5261 54.0524 26.4858C53.2794 26.4455 52.5387 26.3489 51.8301 26.1919C51.1176 26.0349 50.4533 25.8095 49.8334 25.5116C49.2134 25.2137 48.6739 24.8151 48.211 24.324C47.748 23.8288 47.3857 23.2169 47.124 22.4882C46.8623 21.7596 46.7295 20.886 46.7295 19.8755C46.7295 18.865 46.8583 17.9472 47.124 17.2104C47.3857 16.4737 47.748 15.8538 48.211 15.3586C48.6739 14.8594 49.2174 14.4689 49.8334 14.179C50.4533 13.8932 51.1176 13.6758 51.8301 13.5269C52.5427 13.3779 53.2834 13.2853 54.0524 13.2491C54.8253 13.2129 55.5862 13.2008 56.335 13.2169C57.0918 13.2008 57.8527 13.2169 58.6216 13.2491C59.3905 13.2853 60.1272 13.3779 60.8398 13.5269C61.5524 13.6758 62.2166 13.8932 62.8406 14.179C63.4646 14.4649 64.004 14.8594 64.463 15.3586C64.9219 15.8578 65.2842 16.4737 65.5499 17.2104C65.8156 17.9472 65.9445 18.8369 65.9364 19.8755C65.9445 20.886 65.8156 21.7555 65.5499 22.4882ZM61.4638 18.7362C61.3108 18.4101 61.1095 18.1323 60.8519 17.8988C60.5982 17.6654 60.2963 17.4761 59.9501 17.3272C59.6039 17.1782 59.2335 17.0615 58.835 16.9729C58.4364 16.8844 58.0258 16.824 57.5991 16.7918C57.1723 16.7596 56.7496 16.7394 56.3309 16.7314C55.9123 16.7314 55.4896 16.7515 55.0628 16.7877C54.6361 16.824 54.2255 16.8884 53.8309 16.977C53.4364 17.0655 53.0701 17.1823 52.7198 17.3312C52.3736 17.4802 52.0717 17.6694 51.814 17.9029C51.5564 18.1364 51.3511 18.4141 51.2021 18.7402C51.0532 19.0663 50.9767 19.4447 50.9686 19.8795C50.9807 20.3224 51.0652 20.7088 51.2182 21.0349C51.3712 21.365 51.5725 21.6428 51.8301 21.8763C52.0838 22.1098 52.3857 22.299 52.7279 22.448C53.0701 22.5969 53.4404 22.7096 53.839 22.7902C54.2335 22.8707 54.6441 22.927 55.0709 22.9633C55.4936 22.9955 55.9163 23.0116 56.335 23.0116C56.3269 23.0116 56.3229 23.0116 56.3229 23.0156C56.3229 23.0156 56.3229 23.0196 56.335 23.0196C56.347 23.0196 56.3551 23.0196 56.3511 23.0156C56.3511 23.0156 56.343 23.0116 56.335 23.0116C56.963 23.0116 57.595 22.9713 58.2311 22.8948C58.8631 22.8183 59.4348 22.6694 59.9461 22.448C60.4573 22.2265 60.872 21.9125 61.1941 21.5019C61.5161 21.0913 61.6852 20.5518 61.6973 19.8795C61.6973 19.4447 61.6208 19.0663 61.4678 18.7402L61.4638 18.7362ZM72.8446 21.9608C73.1425 22.1943 73.4807 22.3755 73.8631 22.5084C74.2456 22.6412 74.6401 22.7418 75.0507 22.8063C75.4614 22.8707 75.872 22.915 76.2826 22.9351C76.6933 22.9552 77.0757 22.9633 77.43 22.9633C77.591 22.9633 77.8245 22.9633 78.1305 22.9592C78.4364 22.9592 78.7826 22.9431 79.1772 22.919C79.5717 22.8988 79.9944 22.8666 80.4493 22.8304C80.9042 22.7942 81.3712 22.7459 81.8503 22.6815C82.3293 22.617 82.8003 22.5365 83.2714 22.4399C83.7424 22.3393 84.1812 22.2225 84.5918 22.0897V25.5438C83.4042 25.9061 82.1884 26.1597 80.9525 26.3006C79.7126 26.4455 78.4565 26.5059 77.1844 26.4818C77.0636 26.4818 76.9509 26.4818 76.8382 26.4858C76.7295 26.4858 76.6127 26.4898 76.492 26.4898C75.7714 26.4898 75.0467 26.4576 74.3261 26.3972C73.6055 26.3328 72.9131 26.2161 72.2569 26.043C71.6007 25.8699 70.9847 25.6283 70.4171 25.3224C69.8454 25.0164 69.3503 24.6179 68.9316 24.1227C68.5089 23.6275 68.1828 23.0317 67.9453 22.3312C67.7078 21.6307 67.591 20.8014 67.591 19.8433V19.8312C67.591 18.865 67.7118 18.0277 67.9533 17.3232C68.1949 16.6187 68.525 16.0188 68.9437 15.5236C69.3664 15.0285 69.8615 14.6299 70.4412 14.324C71.0169 14.018 71.6369 13.7765 72.2971 13.6034C72.9573 13.4303 73.6538 13.3135 74.3825 13.2531C75.1111 13.1927 75.8358 13.1646 76.5604 13.1646C77.285 13.1646 77.9453 13.1766 78.6135 13.1968C79.2818 13.2169 79.9461 13.2612 80.6023 13.3296C81.2585 13.394 81.9187 13.4906 82.5749 13.6154C83.2311 13.7402 83.9034 13.9053 84.5918 14.1146V17.5768C84.2295 17.46 83.847 17.3554 83.4445 17.2668C83.0419 17.1782 82.6313 17.1017 82.2206 17.0414C81.806 16.977 81.3954 16.9246 80.9847 16.8803C80.5741 16.836 80.1796 16.8038 79.8052 16.7797C78.9276 16.7193 78.054 16.6911 77.1844 16.6911C76.7657 16.6911 76.347 16.7072 75.9203 16.7394C75.4976 16.7716 75.087 16.832 74.6925 16.9166C74.2979 17.0011 73.9316 17.1179 73.5894 17.2668C73.2472 17.4158 72.9453 17.6009 72.6876 17.8304C72.43 18.0599 72.2247 18.3377 72.0717 18.6678C71.9187 18.9979 71.8382 19.3803 71.8342 19.8232C71.8503 20.3183 71.9469 20.737 72.128 21.0832C72.3092 21.4294 72.5467 21.7193 72.8446 21.9528V21.9608ZM96.7174 16.7354V26.3167H92.4823V16.7354H86.2424V13.2612H92.4823V13.2491H96.7174V13.2612H102.957V16.7354H96.7174ZM118.332 26.4133L117.015 24.4005H107.591L106.275 26.4133H101.456L109.608 13.2491H114.99L123.155 26.4133H118.336H118.332ZM112.301 16.9649L109.785 20.9262H114.805L112.301 16.9649ZM138.171 26.4375L128.855 18.5792V26.4375H124.616V13.2692H128.823L138.138 21.1275V13.2692H142.378V26.4375H138.171ZM160.039 23.2853V26.4254H144.556V13.229L160.039 13.3256V16.3691H148.791V18.3055H159.511V21.3489H148.791V23.2853H160.039Z" fill="black"/>
<path fill-rule="evenodd" clip-rule="evenodd" d="M19.9517 40C8.93317 40 0 31.0467 0 20C0 8.9533 8.93317 0 19.9517 0C30.9702 0 39.9034 8.9533 39.9034 20C39.9034 31.0467 30.9702 40 19.9517 40ZM19.9517 6.74718C12.653 6.74718 6.73108 12.6812 6.73108 20C6.73108 27.3188 12.649 33.2528 19.9517 33.2528C27.2544 33.2528 33.1723 27.3188 33.1723 20C33.1723 12.6812 27.2544 6.74718 19.9517 6.74718Z" fill="black"/>
<path fill-rule="evenodd" clip-rule="evenodd" d="M18.4419 14.0897C18.4419 14.0897 21.2156 15.5148 22.9749 15.0599C24.7342 14.605 25.7487 13.518 27.834 13.4415C30.024 13.361 30.5635 14.5003 30.5876 15.386C30.6158 16.5132 30.3501 18.9488 26.5377 18.1396C22.7293 17.3304 18.4419 14.0897 18.4419 14.0897Z" fill="url(#paint0_linear_2020_4)"/>
<path fill-rule="evenodd" clip-rule="evenodd" d="M14.3452 11.8237C17.4692 11.6385 19.148 14.5975 23.0892 16.1957C29.3855 18.748 30.3638 15.9703 30.5127 14.9356C31.2494 16.4534 31.6641 18.1603 31.6641 19.9638C31.6641 26.3326 26.503 31.4936 20.1343 31.4936C13.7655 31.4936 8.60449 26.3326 8.60449 19.9638C8.60449 17.7215 9.24861 15.6281 10.3557 13.8608C10.9354 13.1361 12.1995 11.9566 14.3452 11.8278V11.8237Z" fill="url(#paint1_linear_2020_4)"/>
<defs>
<linearGradient id="paint0_linear_2020_4" x1="29.7342" y1="13.2" x2="20.2615" y2="17.8175" gradientUnits="userSpaceOnUse">
<stop stop-color="#FFBA18"/>
<stop offset="1" stop-color="#FFDD1E"/>
</linearGradient>
<linearGradient id="paint1_linear_2020_4" x1="24.4539" y1="30.6522" x2="16.3823" y2="10.6683" gradientUnits="userSpaceOnUse">
<stop stop-color="#FF520A"/>
<stop offset="1" stop-color="#FFDD1E"/>
</linearGradient>
</defs>
</svg>
